<svg width="1036" height="415" viewBox="0 0 1036 415" fill="none" xmlns="http://www.w3.org/2000/svg">
<path d="M383.24 30.04L431.24 27C432.627 27 433.96 28.3333 435.24 31C435.24 35.0533 430.547 37.08 421.16 37.08L393.16 38.68L392.52 39C395.187 56.3867 396.52 89.4 396.52 138.04C395.987 142.733 394.28 145.08 391.4 145.08C388.627 145.08 387.027 142.947 386.6 138.68V101.56C386.6 76.8133 385.48 56.1733 383.24 39.64C364.147 41.4533 354.6 43.5867 354.6 46.04L353.16 46.68C349.853 45.72 348.2 44.0133 348.2 41.56C348.2 35.6933 359.88 31.8533 383.24 30.04ZM427.529 42.36C430.089 42.36 431.742 43.6933 432.489 46.36L431.529 55.8V58.84C434.195 80.92 435.849 98.0933 436.489 110.36C437.662 121.773 438.889 127.48 440.169 127.48C440.169 129.72 438.302 131.16 434.569 131.8C429.235 131.8 426.569 121.027 426.569 99.48L422.089 57.88V56.44C422.089 47.0533 423.902 42.36 427.529 42.36ZM477.89 25.88H480.45C497.837 25.88 508.983 32.1733 513.89 44.76L514.37 49.88V51.48C514.37 63.8533 506.85 75.32 491.81 85.88C488.183 86.9467 486.37 88.12 486.37 89.4C490.637 105.72 492.77 119.053 492.77 129.4V131.48C492.77 135.747 491.01 137.88 487.49 137.88C484.823 137.56 483.49 136.227 483.49 133.88V129.88C483.49 117.613 481.25 104.28 476.77 89.88C468.13 89.1333 463.33 86.7867 462.37 82.84V81.88C462.37 79.96 463.863 78.4667 466.85 77.4L473.89 79.8V79.48C470.263 63.6933 468.45 53.0267 468.45 47.48C468.45 44.3867 470.263 42.84 473.89 42.84C477.197 42.84 478.85 48.4933 478.85 59.8L483.49 78.84C491.17 76.28 497.143 71.2667 501.41 63.8C503.65 59.5333 504.77 55.7467 504.77 52.44V50.36C504.77 41.6133 497.303 36.6533 482.37 35.48H475.81C461.197 37.08 453.89 40.5467 453.89 45.88V46.84C453.89 48.44 454.743 50.9467 456.45 54.36C456.45 56.7067 454.583 58.2 450.85 58.84C446.583 56.8133 444.45 52.6533 444.45 46.36C444.45 34.6267 455.597 27.8 477.89 25.88ZM608.295 44.6C616.508 44.6 621.308 50.4133 622.695 62.04C622.695 72.8133 614.268 93.6667 597.415 124.6V125.56C601.788 125.56 611.122 121.72 625.415 114.04H625.735C627.868 114.04 629.522 115.587 630.695 118.68C630.695 124.12 616.028 130.787 586.695 138.68C584.988 138.68 583.548 137.133 582.375 134.04C586.535 124.547 594.642 108.547 606.695 86.04C610.748 75.16 612.775 67.8 612.775 63.96V59C612.775 56.8667 611.655 55.2133 609.415 54.04H607.335C603.175 54.04 599.175 59.0533 595.335 69.08L595.815 71C595.815 73.0267 594.322 74.68 591.335 75.96C587.388 75.2133 585.415 73.24 585.415 70.04C585.415 63.96 590.055 56.4933 599.335 47.64C602.002 45.6133 604.988 44.6 608.295 44.6ZM730.428 30.04L778.427 27C779.814 27 781.148 28.3333 782.428 31C782.428 35.0533 777.734 37.08 768.348 37.08L740.348 38.68L739.708 39C742.374 56.3867 743.708 89.4 743.708 138.04C743.174 142.733 741.468 145.08 738.588 145.08C735.814 145.08 734.214 142.947 733.788 138.68V101.56C733.788 76.8133 732.668 56.1733 730.428 39.64C711.334 41.4533 701.788 43.5867 701.788 46.04L700.348 46.68C697.041 45.72 695.387 44.0133 695.387 41.56C695.387 35.6933 707.068 31.8533 730.428 30.04ZM774.716 42.36C777.276 42.36 778.93 43.6933 779.676 46.36L778.716 55.8V58.84C781.383 80.92 783.036 98.0933 783.676 110.36C784.85 121.773 786.076 127.48 787.356 127.48C787.356 129.72 785.49 131.16 781.756 131.8C776.423 131.8 773.756 121.027 773.756 99.48L769.276 57.88V56.44C769.276 47.0533 771.09 42.36 774.716 42.36ZM825.078 25.88H827.638C845.024 25.88 856.171 32.1733 861.078 44.76L861.558 49.88V51.48C861.558 63.8533 854.038 75.32 838.998 85.88C835.371 86.9467 833.557 88.12 833.557 89.4C837.824 105.72 839.958 119.053 839.958 129.4V131.48C839.958 135.747 838.198 137.88 834.677 137.88C832.011 137.56 830.678 136.227 830.678 133.88V129.88C830.678 117.613 828.438 104.28 823.958 89.88C815.318 89.1333 810.518 86.7867 809.558 82.84V81.88C809.558 79.96 811.051 78.4667 814.038 77.4L821.078 79.8V79.48C817.451 63.6933 815.638 53.0267 815.638 47.48C815.638 44.3867 817.451 42.84 821.078 42.84C824.384 42.84 826.038 48.4933 826.038 59.8L830.678 78.84C838.358 76.28 844.331 71.2667 848.598 63.8C850.838 59.5333 851.958 55.7467 851.958 52.44V50.36C851.958 41.6133 844.491 36.6533 829.558 35.48H822.998C808.384 37.08 801.078 40.5467 801.078 45.88V46.84C801.078 48.44 801.931 50.9467 803.638 54.36C803.638 56.7067 801.771 58.2 798.038 58.84C793.771 56.8133 791.637 52.6533 791.637 46.36C791.637 34.6267 802.784 27.8 825.078 25.88Z" fill="white"/>
<path d="M218.78 284.3C211.78 284.3 205.83 282.573 200.93 279.12C196.03 275.62 192.297 270.673 189.73 264.28C187.163 257.887 185.88 250.327 185.88 241.6C185.88 232.687 186.813 225.033 188.68 218.64C190.593 212.247 193.16 206.95 196.38 202.75C199.6 198.503 203.24 195.167 207.3 192.74C211.407 190.313 215.653 188.587 220.04 187.56C224.473 186.533 228.813 186.02 233.06 186.02C239.08 186.02 243.63 186.673 246.71 187.98C249.837 189.287 251.4 191.2 251.4 193.72C251.4 195.4 250.957 196.52 250.07 197.08C249.183 197.64 247.9 197.873 246.22 197.78C244.54 197.687 242.51 197.5 240.13 197.22C237.797 196.94 235.16 196.8 232.22 196.8C227.973 196.8 224.287 197.477 221.16 198.83C218.08 200.183 215.513 202.143 213.46 204.71C211.453 207.277 209.937 210.38 208.91 214.02C207.93 217.66 207.44 221.767 207.44 226.34C207.44 232.22 208.28 237.657 209.96 242.65C211.64 247.597 214.277 251.587 217.87 254.62C221.51 257.607 226.247 259.1 232.08 259.1C235.207 259.1 238.123 258.587 240.83 257.56C243.537 256.533 245.707 254.947 247.34 252.8C249.02 250.607 249.86 247.807 249.86 244.4C249.86 243.28 249.697 242.347 249.37 241.6C249.09 240.853 248.577 240.317 247.83 239.99C247.13 239.663 246.173 239.5 244.96 239.5C243.56 239.5 242.16 239.523 240.76 239.57C239.36 239.617 237.96 239.64 236.56 239.64C232.64 239.64 230.073 239.057 228.86 237.89C227.647 236.677 227.04 235.347 227.04 233.9C227.04 232.267 227.67 230.843 228.93 229.63C230.19 228.417 232.733 227.88 236.56 228.02C239.033 228.067 241.46 228.16 243.84 228.3C246.267 228.44 248.693 228.627 251.12 228.86C254.153 229.14 256.253 230.003 257.42 231.45C258.587 232.85 259.24 234.74 259.38 237.12C259.473 238.147 259.543 239.477 259.59 241.11C259.637 242.743 259.707 244.563 259.8 246.57C259.8 247.083 259.8 247.62 259.8 248.18C259.847 248.693 259.893 249.23 259.94 249.79C259.987 250.21 260.01 250.653 260.01 251.12C260.01 251.54 260.01 251.983 260.01 252.45C260.057 252.87 260.08 253.313 260.08 253.78C260.127 254.573 260.15 255.39 260.15 256.23C260.197 257.023 260.243 257.84 260.29 258.68C260.337 259.287 260.36 259.917 260.36 260.57C260.36 261.177 260.383 261.807 260.43 262.46C260.477 263.067 260.5 263.673 260.5 264.28C260.547 264.84 260.57 265.447 260.57 266.1C260.71 270.627 260.827 274.967 260.92 279.12C261.06 283.227 261.153 286.54 261.2 289.06C261.247 291.393 260.64 293.143 259.38 294.31C258.12 295.477 256.743 296.06 255.25 296.06C253.757 296.06 252.38 295.477 251.12 294.31C249.86 293.143 249.253 291.487 249.3 289.34C249.44 286.307 249.627 283.53 249.86 281.01C250.093 278.443 250.233 275.76 250.28 272.96C250.28 271.747 250.14 270.86 249.86 270.3C249.627 269.74 249.113 269.46 248.32 269.46C247.247 269.46 246.01 270.207 244.61 271.7C243.257 273.193 241.507 274.92 239.36 276.88C237.26 278.84 234.553 280.567 231.24 282.06C227.927 283.553 223.773 284.3 218.78 284.3ZM199.6 256.86C201.14 256.86 202.423 256.323 203.45 255.25C204.523 254.13 205.06 252.66 205.06 250.84C205.06 248.88 204.523 247.363 203.45 246.29C202.377 245.217 200.86 244.68 198.9 244.68C197.22 244.68 195.843 245.217 194.77 246.29C193.697 247.317 193.16 248.74 193.16 250.56C193.16 252.707 193.72 254.293 194.84 255.32C196.007 256.347 197.593 256.86 199.6 256.86ZM208.84 273.1C210.8 273.1 212.363 272.61 213.53 271.63C214.697 270.65 215.28 269.227 215.28 267.36C215.28 265.307 214.79 263.72 213.81 262.6C212.877 261.48 211.173 260.92 208.7 260.92C207.113 260.92 205.783 261.503 204.71 262.67C203.637 263.79 203.1 265.4 203.1 267.5C203.1 269.227 203.567 270.603 204.5 271.63C205.433 272.61 206.88 273.1 208.84 273.1ZM255.32 249.86C255.04 249.86 254.76 249.86 254.48 249.86C254.2 249.86 253.92 249.86 253.64 249.86C253.08 249.86 252.403 249.557 251.61 248.95C250.817 248.343 250.42 247.34 250.42 245.94C250.42 244.54 250.747 243.537 251.4 242.93C252.1 242.323 252.8 242.02 253.5 242.02C253.78 242.02 253.99 242.02 254.13 242.02C254.27 242.02 254.48 242.02 254.76 242.02C256.113 242.02 257.047 242.323 257.56 242.93C258.12 243.537 258.4 244.447 258.4 245.66C258.4 247.34 258.12 248.437 257.56 248.95C257 249.463 256.253 249.767 255.32 249.86ZM217.24 178.46C218.033 180 218.78 181.563 219.48 183.15C220.18 184.69 220.833 186.3 221.44 187.98C222.093 189.567 222.257 191.107 221.93 192.6C221.65 194.047 220.693 195.12 219.06 195.82C217.753 196.38 216.423 196.193 215.07 195.26C213.717 194.28 212.573 192.787 211.64 190.78C211.033 189.38 210.427 187.957 209.82 186.51C209.213 185.063 208.653 183.64 208.14 182.24C207.3 179.767 206.88 177.737 206.88 176.15C206.927 174.563 207.86 173.467 209.68 172.86C211.313 172.3 212.69 172.51 213.81 173.49C214.93 174.423 216.073 176.08 217.24 178.46ZM207.72 201L201.56 208.7C197.08 204.78 193.813 201.677 191.76 199.39C189.753 197.103 188.633 195.307 188.4 194C188.213 192.647 188.633 191.433 189.66 190.36C191.34 188.68 193.417 188.61 195.89 190.15C198.41 191.69 202.353 195.307 207.72 201ZM275.119 278C274.419 271.607 273.789 264.607 273.229 257C272.716 249.347 272.319 241.717 272.039 234.11C271.899 230.377 271.876 226.76 271.969 223.26C272.062 219.76 272.272 216.68 272.599 214.02C276.379 215.14 279.296 215.653 281.349 215.56C283.402 215.42 284.732 214.627 285.339 213.18C286.039 211.5 285.619 209.89 284.079 208.35C282.586 206.763 279.319 205.107 274.279 203.38C275.119 201.327 276.239 199.227 277.639 197.08C279.086 194.933 280.579 193.207 282.119 191.9C284.919 195.727 287.182 198.153 288.909 199.18C290.682 200.16 292.339 200.067 293.879 198.9C295.372 197.827 295.769 196.03 295.069 193.51C294.369 190.943 293.039 188.4 291.079 185.88C292.992 185.04 295.582 184.363 298.849 183.85C302.116 183.337 304.939 183.08 307.319 183.08C313.806 183.08 319.452 183.78 324.259 185.18C329.066 186.533 333.056 188.54 336.229 191.2C339.402 193.813 341.759 196.987 343.299 200.72C344.886 204.407 345.679 208.607 345.679 213.32C345.679 218.5 344.652 223.05 342.599 226.97C340.546 230.89 337.699 233.97 334.059 236.21C330.419 238.403 326.219 239.5 321.459 239.5C317.446 239.5 314.062 238.8 311.309 237.4C308.602 235.953 306.549 233.97 305.149 231.45C303.796 228.93 303.119 226.013 303.119 222.7C303.119 217.987 304.519 214.23 307.319 211.43C310.119 208.583 313.619 207.16 317.819 207.16C321.226 207.16 323.909 208 325.869 209.68C327.876 211.36 328.879 213.297 328.879 215.49C328.879 216.75 328.552 217.777 327.899 218.57C327.292 219.317 326.359 219.69 325.099 219.69C324.259 219.69 323.606 219.527 323.139 219.2C322.719 218.827 322.322 218.407 321.949 217.94C321.622 217.427 321.179 217.007 320.619 216.68C320.059 216.307 319.219 216.12 318.099 216.12C316.652 216.12 315.556 216.68 314.809 217.8C314.109 218.92 313.759 220.227 313.759 221.72C313.759 224.147 314.529 226.177 316.069 227.81C317.609 229.443 319.592 230.26 322.019 230.26C326.079 230.26 329.276 228.767 331.609 225.78C333.989 222.747 335.179 218.827 335.179 214.02C335.179 208.607 333.709 204.22 330.769 200.86C327.876 197.5 323.792 195.82 318.519 195.82C314.319 195.82 310.562 196.893 307.249 199.04C303.982 201.14 301.206 204.22 298.919 208.28C296.679 212.34 294.999 217.24 293.879 222.98C292.946 228.02 292.269 232.033 291.849 235.02C291.476 237.96 291.359 240.223 291.499 241.81C291.686 243.397 292.106 244.587 292.759 245.38C293.412 246.173 294.299 246.92 295.419 247.62C296.259 248.087 297.262 248.647 298.429 249.3C299.596 249.907 300.879 250.56 302.279 251.26C302.792 251.447 303.306 251.68 303.819 251.96C304.379 252.24 304.939 252.497 305.499 252.73C306.152 253.01 306.806 253.313 307.459 253.64C308.159 253.967 308.859 254.293 309.559 254.62C310.119 254.853 310.656 255.11 311.169 255.39C311.729 255.623 312.266 255.857 312.779 256.09C313.386 256.37 313.946 256.65 314.459 256.93C314.972 257.21 315.486 257.467 315.999 257.7C316.419 257.887 316.816 258.073 317.189 258.26C317.609 258.447 318.006 258.633 318.379 258.82C318.799 259.007 319.219 259.193 319.639 259.38C324.959 261.947 329.322 264.093 332.729 265.82C336.136 267.547 338.772 269.11 340.639 270.51C342.506 271.863 343.812 273.24 344.559 274.64C345.306 275.993 345.679 277.58 345.679 279.4C345.679 280.987 345.119 282.41 343.999 283.67C342.879 284.93 341.292 285.56 339.239 285.56C338.352 285.56 337.349 285.397 336.229 285.07C335.156 284.79 333.709 284.183 331.889 283.25C330.116 282.317 327.736 280.94 324.749 279.12C321.762 277.3 317.936 274.873 313.269 271.84C308.649 268.807 302.932 265.027 296.119 260.5C293.599 258.82 291.639 258.213 290.239 258.68C288.886 259.1 287.999 260.407 287.579 262.6C286.972 265.54 286.529 268.55 286.249 271.63C285.969 274.663 285.619 277.16 285.199 279.12C284.732 281.127 284.149 282.667 283.449 283.74C282.749 284.767 281.652 285.28 280.159 285.28C278.479 285.28 277.289 284.673 276.589 283.46C275.889 282.247 275.399 280.427 275.119 278ZM281.419 274.36C280.159 274.36 279.179 274.057 278.479 273.45C277.826 272.797 277.499 271.56 277.499 269.74C277.499 268.2 277.779 267.15 278.339 266.59C278.946 266.03 279.879 265.82 281.139 265.96L281.419 274.36ZM277.219 252.24C276.379 252.147 275.702 251.867 275.189 251.4C274.676 250.933 274.419 249.907 274.419 248.32C274.419 246.547 274.676 245.403 275.189 244.89C275.749 244.377 276.752 244.167 278.199 244.26L277.219 252.24ZM327.899 257.28C325.659 257.28 323.886 256.697 322.579 255.53C321.272 254.363 320.619 252.8 320.619 250.84C320.619 248.18 321.202 246.22 322.369 244.96C323.536 243.653 325.239 243 327.479 243C329.952 243 331.819 243.583 333.079 244.75C334.386 245.87 335.039 247.62 335.039 250C335.039 252.287 334.432 254.083 333.219 255.39C332.052 256.65 330.279 257.28 327.899 257.28ZM354.622 271.98C355.508 268.527 356.628 264.233 357.982 259.1C359.335 253.92 360.805 248.413 362.392 242.58C363.978 236.7 365.542 231.03 367.082 225.57C369.835 226.69 372.355 227.553 374.642 228.16C376.975 228.72 378.842 228.79 380.242 228.37C381.642 227.95 382.342 226.807 382.342 224.94C382.342 223.68 381.432 222.467 379.612 221.3C377.838 220.133 374.385 218.92 369.252 217.66C369.672 216.027 370.092 214.487 370.512 213.04C370.932 211.547 371.328 210.147 371.702 208.84C374.922 210.193 377.978 211.29 380.872 212.13C383.765 212.97 386.122 213.227 387.942 212.9C389.762 212.573 390.672 211.36 390.672 209.26C390.672 207.72 389.505 206.32 387.172 205.06C384.838 203.8 380.452 202.447 374.012 201C374.058 200.813 374.082 200.673 374.082 200.58C374.128 200.44 374.175 200.277 374.222 200.09C375.435 196.03 377.652 192.88 380.872 190.64C384.138 188.4 388.595 187.327 394.242 187.42C400.028 187.42 404.555 188.703 407.822 191.27C411.088 193.79 413.142 197.827 413.982 203.38C414.075 204.08 414.168 204.827 414.262 205.62C414.402 206.367 414.518 207.16 414.612 208C414.705 208.747 414.798 209.517 414.892 210.31C415.032 211.103 415.148 211.92 415.242 212.76C415.335 213.227 415.405 213.693 415.452 214.16C415.545 214.627 415.615 215.093 415.662 215.56C415.755 216.027 415.825 216.517 415.872 217.03C416.012 218.103 416.152 219.2 416.292 220.32C416.432 221.44 416.595 222.583 416.782 223.75C416.875 224.45 416.968 225.173 417.062 225.92C417.202 226.62 417.295 227.367 417.342 228.16C417.435 228.72 417.505 229.303 417.552 229.91C417.645 230.47 417.738 231.053 417.832 231.66C417.925 232.22 417.995 232.803 418.042 233.41C418.602 237.47 419.138 241.6 419.652 245.8C420.212 250 420.748 254.13 421.262 258.19C421.775 262.25 422.242 266.1 422.662 269.74C423.128 273.38 423.548 276.693 423.922 279.68C424.248 282.247 423.852 284.393 422.732 286.12C421.612 287.893 420.002 288.78 417.902 288.78C416.082 288.78 414.518 288.08 413.212 286.68C411.952 285.327 411.182 283.32 410.902 280.66C410.015 272.26 409.222 263.533 408.522 254.48C407.822 245.38 407.052 236.187 406.212 226.9C405.932 223.68 405.348 221.44 404.462 220.18C403.575 218.92 402.105 218.29 400.052 218.29C398.185 218.29 396.412 218.85 394.732 219.97C393.098 221.09 391.255 223.727 389.202 227.88C385.235 235.907 381.292 244.12 377.372 252.52C373.498 260.92 369.695 268.993 365.962 276.74C365.028 278.653 364.002 280.053 362.882 280.94C361.762 281.78 360.502 282.2 359.102 282.2C357.095 282.2 355.648 281.243 354.762 279.33C353.922 277.417 353.875 274.967 354.622 271.98ZM370.862 260.5L373.522 250.56C379.495 250.327 385.445 250.093 391.372 249.86C397.298 249.627 402.922 249.44 408.242 249.3C410.482 249.207 412.325 249.557 413.772 250.35C415.218 251.097 415.942 252.333 415.942 254.06C415.942 255.927 415.428 257.28 414.402 258.12C413.422 258.96 411.975 259.427 410.062 259.52C403.528 259.8 397.065 260.01 390.672 260.15C384.278 260.29 377.675 260.407 370.862 260.5ZM418.042 273.66C416.782 273.66 415.662 273.263 414.682 272.47C413.748 271.677 413.282 270.58 413.282 269.18C413.282 267.78 413.702 266.707 414.542 265.96C415.428 265.213 416.595 264.84 418.042 264.84C418.322 264.84 418.718 264.84 419.232 264.84C419.745 264.84 420.235 264.84 420.702 264.84V273.66C420.282 273.707 419.838 273.73 419.372 273.73C418.905 273.683 418.462 273.66 418.042 273.66ZM363.512 254.69C359.312 253.477 356.068 252.403 353.782 251.47C351.495 250.537 349.908 249.627 349.022 248.74C348.088 247.807 347.622 246.757 347.622 245.59C347.622 243.35 348.532 242.02 350.352 241.6C352.125 241.18 354.458 241.367 357.352 242.16C360.245 242.953 363.278 244.073 366.452 245.52L363.512 254.69ZM367.502 262.88C366.335 262.507 365.332 262.11 364.492 261.69C363.698 261.27 363.092 260.78 362.672 260.22C362.252 259.66 362.042 258.96 362.042 258.12C362.042 256.347 362.368 254.947 363.022 253.92C363.675 252.893 364.608 252.263 365.822 252.03C367.082 251.797 368.622 252.007 370.442 252.66L367.502 262.88ZM411.462 243.98L410.482 234.32C412.162 234.133 413.538 234.133 414.612 234.32C415.685 234.507 416.478 235.02 416.992 235.86C417.505 236.653 417.762 237.913 417.762 239.64C417.762 241.32 417.225 242.393 416.152 242.86C415.078 243.327 413.515 243.7 411.462 243.98ZM416.432 259.1L415.942 248.88C419.862 248.74 422.942 248.693 425.182 248.74C427.468 248.787 429.078 249.207 430.012 250C430.992 250.747 431.482 252.17 431.482 254.27C431.482 256.183 430.455 257.467 428.402 258.12C426.395 258.727 422.405 259.053 416.432 259.1ZM474.237 285.28C470.037 285.28 466.467 284.183 463.527 281.99C460.587 279.797 458.441 276.787 457.087 272.96C456.667 271.747 456.224 270.487 455.757 269.18C455.291 267.873 454.847 266.567 454.427 265.26C454.241 264.747 454.054 264.233 453.867 263.72C453.727 263.16 453.564 262.647 453.377 262.18C453.191 261.527 452.981 260.92 452.747 260.36C452.561 259.753 452.374 259.193 452.187 258.68C451.907 257.793 451.557 256.767 451.137 255.6C450.717 254.387 450.321 253.29 449.947 252.31C449.761 251.657 449.574 251.073 449.387 250.56C449.201 250.047 449.037 249.603 448.897 249.23C448.757 248.763 448.594 248.273 448.407 247.76C448.221 247.247 448.034 246.71 447.847 246.15C447.707 245.59 447.521 245.007 447.287 244.4C446.307 241.413 445.141 237.843 443.787 233.69C442.434 229.49 441.057 225.22 439.657 220.88C438.257 216.493 436.951 212.433 435.737 208.7C434.571 204.967 433.661 202.027 433.007 199.88C431.887 196.1 431.957 193.23 433.217 191.27C434.477 189.263 436.367 188.26 438.887 188.26C440.567 188.26 441.991 188.89 443.157 190.15C444.371 191.41 445.327 193.3 446.027 195.82C448.501 204.127 450.904 212.713 453.237 221.58C455.617 230.4 458.161 238.987 460.867 247.34C461.661 249.907 462.547 251.75 463.527 252.87C464.554 253.99 465.861 254.55 467.447 254.55C468.941 254.55 470.317 254.037 471.577 253.01C472.837 251.937 473.981 250.233 475.007 247.9C479.021 238.567 482.847 229.233 486.487 219.9C490.127 210.52 493.861 201.187 497.687 191.9C498.667 189.567 499.787 187.887 501.047 186.86C502.307 185.833 503.661 185.32 505.107 185.32C507.861 185.32 509.564 186.323 510.217 188.33C510.917 190.337 510.941 192.74 510.287 195.54C508.421 204.127 506.437 212.737 504.337 221.37C502.237 229.957 500.067 238.52 497.827 247.06C495.354 246.127 493.044 245.427 490.897 244.96C488.751 244.493 487.024 244.493 485.717 244.96C484.457 245.427 483.827 246.617 483.827 248.53C483.827 249.837 484.667 250.957 486.347 251.89C488.074 252.777 491.294 253.687 496.007 254.62C495.727 255.88 495.401 257.093 495.027 258.26C494.701 259.427 494.327 260.64 493.907 261.9C490.594 260.78 487.607 259.94 484.947 259.38C482.334 258.773 480.257 258.703 478.717 259.17C477.224 259.59 476.477 260.757 476.477 262.67C476.477 264.07 477.527 265.283 479.627 266.31C481.727 267.337 485.787 268.387 491.807 269.46C491.807 269.46 491.784 269.553 491.737 269.74C491.691 269.88 491.621 270.067 491.527 270.3C490.454 274.127 489.101 277.137 487.467 279.33C485.881 281.523 483.991 283.063 481.797 283.95C479.604 284.837 477.084 285.28 474.237 285.28ZM469.687 210.24C467.167 210.24 465.044 209.447 463.317 207.86C461.591 206.227 460.727 203.567 460.727 199.88C460.727 197.127 461.637 194.98 463.457 193.44C465.277 191.853 467.587 191.06 470.387 191.06C473.141 191.06 475.404 191.9 477.177 193.58C478.997 195.26 479.907 197.92 479.907 201.56C479.907 203.707 478.951 205.69 477.037 207.51C475.171 209.33 472.721 210.24 469.687 210.24ZM498.107 222C499.087 222.28 499.787 222.77 500.207 223.47C500.627 224.17 500.837 224.94 500.837 225.78C500.837 226.9 500.627 227.88 500.207 228.72C499.787 229.56 499.181 230.143 498.387 230.47C497.594 230.797 496.614 230.82 495.447 230.54C495.027 230.493 494.584 230.4 494.117 230.26C493.651 230.12 493.207 230.027 492.787 229.98C491.714 229.7 490.921 229.233 490.407 228.58C489.894 227.927 489.637 227.11 489.637 226.13C489.637 224.077 490.081 222.607 490.967 221.72C491.854 220.787 493.254 220.553 495.167 221.02C495.587 221.16 496.077 221.323 496.637 221.51C497.197 221.697 497.687 221.86 498.107 222ZM455.407 218.5C457.787 217.847 459.957 217.38 461.917 217.1C463.877 216.773 465.417 216.89 466.537 217.45C467.704 217.963 468.287 219.177 468.287 221.09C468.287 222.537 467.471 223.75 465.837 224.73C464.204 225.663 461.567 226.667 457.927 227.74C455.407 228.487 452.817 229.187 450.157 229.84C447.544 230.493 444.907 231.147 442.247 231.8C439.027 232.547 436.274 232.92 433.987 232.92C431.701 232.873 430.557 231.52 430.557 228.86C430.557 227.647 431.304 226.643 432.797 225.85C434.291 225.01 436.694 224.053 440.007 222.98C442.527 222.14 445.047 221.37 447.567 220.67C450.134 219.923 452.747 219.2 455.407 218.5ZM441.547 199.04C443.041 198.807 444.324 199.063 445.397 199.81C446.471 200.51 447.007 201.607 447.007 203.1C447.007 204.5 446.704 205.527 446.097 206.18C445.491 206.787 444.347 207.347 442.667 207.86C442.247 208 441.804 208.117 441.337 208.21C440.871 208.257 440.381 208.327 439.867 208.42C438.607 208.607 437.604 208.047 436.857 206.74C436.157 205.433 435.807 204.22 435.807 203.1C435.807 202.4 436.017 201.747 436.437 201.14C436.857 200.487 437.581 200.02 438.607 199.74C439.027 199.6 439.494 199.46 440.007 199.32C440.567 199.18 441.081 199.087 441.547 199.04ZM522.637 274.36C522.637 267.127 522.684 260.267 522.777 253.78C522.917 247.293 523.057 240.527 523.197 233.48C527.63 233.48 530.967 233.317 533.207 232.99C535.447 232.663 536.94 232.127 537.687 231.38C538.434 230.633 538.784 229.653 538.737 228.44C538.69 227.32 538.317 226.433 537.617 225.78C536.964 225.127 535.54 224.707 533.347 224.52C531.2 224.287 527.91 224.287 523.477 224.52C523.477 223.4 523.477 222.023 523.477 220.39C523.524 218.71 523.57 217.287 523.617 216.12C528.75 215.887 532.017 215.397 533.417 214.65C534.817 213.857 535.517 212.667 535.517 211.08C535.517 209.4 534.794 208.163 533.347 207.37C531.9 206.577 528.657 206.227 523.617 206.32C523.617 205.527 523.64 204.593 523.687 203.52C523.78 202.447 523.85 201.187 523.897 199.74C524.037 195.82 525.204 193.137 527.397 191.69C529.59 190.197 532.53 189.287 536.217 188.96C539.017 188.727 541.817 188.493 544.617 188.26C547.417 188.027 550.194 187.84 552.947 187.7C555.7 187.513 558.384 187.373 560.997 187.28C563.657 187.187 566.224 187.14 568.697 187.14C572.43 187.14 575.09 187.677 576.677 188.75C578.264 189.823 579.057 191.527 579.057 193.86C579.057 195.353 578.824 196.59 578.357 197.57C577.89 198.503 577.167 199.203 576.187 199.67C575.254 200.09 574.064 200.3 572.617 200.3C572.477 200.3 572.29 200.3 572.057 200.3C571.87 200.3 571.66 200.3 571.427 200.3C571.194 200.3 570.96 200.3 570.727 200.3C570.12 200.253 569.514 200.23 568.907 200.23C568.347 200.23 567.857 200.207 567.437 200.16C566.037 200.067 564.544 199.997 562.957 199.95C561.417 199.903 559.9 199.857 558.407 199.81C558.08 199.81 557.754 199.81 557.427 199.81C557.1 199.763 556.75 199.74 556.377 199.74C556.05 199.74 555.724 199.74 555.397 199.74C555.07 199.693 554.744 199.67 554.417 199.67C554.137 199.67 553.857 199.67 553.577 199.67C552.97 199.623 552.387 199.6 551.827 199.6C551.314 199.6 550.824 199.6 550.357 199.6C548.677 199.6 547.557 199.973 546.997 200.72C546.437 201.467 546.25 203.147 546.437 205.76C546.717 209.587 547.067 213.063 547.487 216.19C547.907 219.317 548.397 222.747 548.957 226.48C549.237 228.3 549.657 229.537 550.217 230.19C550.824 230.843 551.85 231.1 553.297 230.96C555.35 230.727 557.45 230.47 559.597 230.19C561.79 229.863 563.657 229.607 565.197 229.42C567.017 229.187 568.37 229.677 569.257 230.89C570.19 232.103 570.657 233.527 570.657 235.16C570.657 236.7 570.214 238.17 569.327 239.57C568.44 240.923 567.11 241.647 565.337 241.74C564.31 241.787 563.237 241.833 562.117 241.88C560.997 241.927 559.83 241.973 558.617 242.02C558.104 242.067 557.59 242.09 557.077 242.09C556.61 242.09 556.12 242.113 555.607 242.16C555.14 242.16 554.65 242.183 554.137 242.23C553.67 242.23 553.204 242.23 552.737 242.23C551.85 242.277 550.964 242.323 550.077 242.37C549.237 242.37 548.374 242.393 547.487 242.44C547.207 242.44 546.904 242.44 546.577 242.44C546.297 242.44 545.994 242.463 545.667 242.51C545.387 242.51 545.084 242.51 544.757 242.51C544.477 242.51 544.197 242.533 543.917 242.58C543.637 242.58 543.334 242.58 543.007 242.58C542.727 242.58 542.447 242.603 542.167 242.65C541.42 242.697 540.674 242.743 539.927 242.79C539.227 242.837 538.55 242.86 537.897 242.86C536.87 242.907 536.03 243.303 535.377 244.05C534.77 244.797 534.63 246.127 534.957 248.04C535.61 251.447 536.357 254.83 537.197 258.19C538.037 261.503 538.97 264.887 539.997 268.34C540.557 270.207 541.234 271.42 542.027 271.98C542.82 272.493 543.917 272.68 545.317 272.54C550.03 272.027 554.72 271.467 559.387 270.86C564.1 270.253 568.93 269.74 573.877 269.32C576.024 269.133 577.61 269.787 578.637 271.28C579.71 272.773 580.247 274.407 580.247 276.18C580.247 277.767 579.804 279.237 578.917 280.59C578.077 281.943 576.77 282.667 574.997 282.76C567.81 283.04 560.577 283.157 553.297 283.11C546.064 283.063 538.83 283.04 531.597 283.04C528.377 283.04 526.067 282.27 524.667 280.73C523.314 279.19 522.637 277.067 522.637 274.36ZM541.677 278.42L550.777 278.56C550.964 283.833 550.94 287.753 550.707 290.32C550.52 292.933 550.054 294.66 549.307 295.5C548.607 296.34 547.604 296.76 546.297 296.76C544.944 296.76 543.917 296.317 543.217 295.43C542.564 294.59 542.12 292.863 541.887 290.25C541.7 287.637 541.63 283.693 541.677 278.42ZM563.097 294.66C562.91 292.14 562.747 289.573 562.607 286.96C562.467 284.393 562.35 281.827 562.257 279.26C562.21 276.32 562.514 274.313 563.167 273.24C563.867 272.12 565.057 271.56 566.737 271.56C568.23 271.56 569.327 272.073 570.027 273.1C570.774 274.08 571.217 275.76 571.357 278.14C571.497 280.8 571.614 283.437 571.707 286.05C571.8 288.663 571.87 291.3 571.917 293.96C572.01 296.34 571.66 298.067 570.867 299.14C570.12 300.26 569.07 300.82 567.717 300.82C566.317 300.82 565.244 300.353 564.497 299.42C563.797 298.533 563.33 296.947 563.097 294.66ZM566.177 263.02C563.704 263.02 561.79 262.343 560.437 260.99C559.13 259.637 558.477 257.7 558.477 255.18C558.477 252.66 559.107 250.817 560.367 249.65C561.674 248.483 563.47 247.9 565.757 247.9C568.23 247.9 570.144 248.53 571.497 249.79C572.897 251.05 573.597 252.707 573.597 254.76C573.597 257.56 572.897 259.637 571.497 260.99C570.144 262.343 568.37 263.02 566.177 263.02ZM557.077 192.18C557.077 191.247 557.52 190.43 558.407 189.73C559.294 189.03 560.297 188.68 561.417 188.68C562.63 188.68 563.75 188.82 564.777 189.1C565.85 189.333 566.41 189.987 566.457 191.06C566.55 191.527 566.62 192.017 566.667 192.53C566.714 192.997 566.737 193.44 566.737 193.86C566.737 194.887 566.317 195.773 565.477 196.52C564.637 197.267 563.61 197.64 562.397 197.64C561.277 197.64 560.18 197.453 559.107 197.08C558.08 196.66 557.497 195.867 557.357 194.7C557.31 194.28 557.24 193.86 557.147 193.44C557.1 193.02 557.077 192.6 557.077 192.18ZM538.037 196.8L536.777 205.76C535.097 205.527 533.79 205.107 532.857 204.5C531.924 203.847 531.457 202.727 531.457 201.14C531.457 199.18 532.04 197.967 533.207 197.5C534.42 197.033 536.03 196.8 538.037 196.8ZM605.493 288.36C600.966 288.36 597.816 287.473 596.043 285.7C594.269 283.927 593.383 281.057 593.383 277.09C593.383 275.503 593.523 272.82 593.803 269.04C594.129 265.26 594.549 260.78 595.063 255.6C595.576 250.373 596.136 244.843 596.743 239.01C597.349 233.13 597.979 227.297 598.633 221.51C599.286 215.723 599.893 210.333 600.453 205.34C601.059 200.347 601.573 196.147 601.993 192.74C602.273 190.36 602.809 188.587 603.603 187.42C604.443 186.207 605.633 185.6 607.173 185.6C608.339 185.6 609.273 185.903 609.973 186.51C610.673 187.07 611.186 187.957 611.513 189.17C611.839 190.337 612.026 191.807 612.073 193.58C612.166 196.24 612.259 199.367 612.353 202.96C612.446 206.553 612.539 210.287 612.633 214.16C612.633 214.86 612.633 215.56 612.633 216.26C612.633 216.913 612.656 217.59 612.703 218.29C612.703 219.037 612.703 219.807 612.703 220.6C612.703 221.347 612.726 222.117 612.773 222.91C612.819 223.937 612.843 224.94 612.843 225.92C612.843 226.9 612.866 227.88 612.913 228.86C612.913 229.327 612.913 229.793 612.913 230.26C612.959 230.727 612.983 231.193 612.983 231.66C612.983 232.08 612.983 232.523 612.983 232.99C613.029 233.503 613.053 234.017 613.053 234.53C613.053 234.997 613.053 235.487 613.053 236C613.099 236.467 613.123 236.933 613.123 237.4C613.216 239.127 613.286 240.737 613.333 242.23C613.379 243.723 613.426 245.053 613.473 246.22C613.613 249.16 614.173 251.4 615.153 252.94C616.133 254.48 617.673 255.74 619.773 256.72C621.453 257.513 623.179 258.33 624.953 259.17C626.726 259.963 628.523 260.78 630.343 261.62C632.163 262.46 633.983 263.3 635.803 264.14C637.669 264.98 639.513 265.82 641.333 266.66C643.666 267.733 645.579 268.83 647.073 269.95C648.566 271.07 649.663 272.307 650.363 273.66C651.063 275.013 651.413 276.553 651.413 278.28C651.413 280.66 650.619 282.62 649.033 284.16C647.446 285.7 645.066 286.587 641.893 286.82C640.726 286.867 639.559 286.937 638.393 287.03C637.273 287.17 636.153 287.287 635.033 287.38C635.453 283.507 635.593 280.52 635.453 278.42C635.313 276.273 634.916 274.78 634.263 273.94C633.609 273.1 632.746 272.68 631.673 272.68C630.459 272.68 629.526 273.123 628.873 274.01C628.266 274.897 627.846 276.437 627.613 278.63C627.426 280.823 627.333 283.88 627.333 287.8C625.886 287.847 624.393 287.893 622.853 287.94C621.359 288.033 619.866 288.08 618.373 288.08C618.373 282.387 618.163 278.14 617.743 275.34C617.369 272.493 616.809 270.627 616.063 269.74C615.316 268.853 614.406 268.387 613.333 268.34C612.073 268.34 611.069 268.853 610.323 269.88C609.576 270.907 609.109 272.867 608.923 275.76C608.783 278.607 608.993 282.76 609.553 288.22C608.853 288.267 608.176 288.29 607.523 288.29C606.869 288.337 606.193 288.36 605.493 288.36ZM600.873 250.56C596.066 250.653 592.356 250.63 589.743 250.49C587.129 250.303 585.309 249.837 584.283 249.09C583.303 248.297 582.813 247.06 582.813 245.38C582.813 242.86 584.119 241.297 586.733 240.69C589.346 240.037 594.293 239.967 601.573 240.48L600.873 250.56ZM607.733 213.32V202.68C613.846 202.727 618.489 202.867 621.663 203.1C624.836 203.333 626.983 203.823 628.103 204.57C629.269 205.317 629.853 206.46 629.853 208C629.853 209.727 629.246 210.987 628.033 211.78C626.866 212.527 624.673 212.993 621.453 213.18C618.279 213.367 613.706 213.413 607.733 213.32ZM608.993 223.82L608.853 214.86C609.553 214.86 610.136 215 610.603 215.28C611.116 215.56 611.489 216.05 611.723 216.75C611.956 217.403 612.073 218.313 612.073 219.48C612.073 221.16 611.816 222.303 611.303 222.91C610.836 223.517 610.066 223.82 608.993 223.82ZM645.113 278.84L636.853 277.44C636.853 276.133 636.993 275.06 637.273 274.22C637.553 273.333 637.973 272.68 638.533 272.26C639.139 271.84 639.886 271.607 640.773 271.56C642.406 271.42 643.503 271.63 644.063 272.19C644.669 272.703 644.996 273.52 645.043 274.64C645.089 275.76 645.113 277.16 645.113 278.84ZM719.805 281.78C714.998 281.78 710.845 281.01 707.345 279.47C703.892 277.883 701.045 275.9 698.805 273.52C696.612 271.093 694.978 268.62 693.905 266.1C692.878 263.58 692.365 261.387 692.365 259.52C692.365 257.887 692.715 256.743 693.415 256.09C694.162 255.39 695.165 255.04 696.425 255.04C697.685 255.04 698.642 255.413 699.295 256.16C699.995 256.907 700.578 257.98 701.045 259.38C701.932 261.9 703.168 264.163 704.755 266.17C706.388 268.177 708.442 269.763 710.915 270.93C713.435 272.097 716.445 272.68 719.945 272.68C724.378 272.68 727.972 271.583 730.725 269.39C733.525 267.15 734.925 264.187 734.925 260.5C734.925 257.373 734.108 254.877 732.475 253.01C730.842 251.097 728.672 249.533 725.965 248.32C723.305 247.06 720.365 245.917 717.145 244.89C713.972 243.863 710.775 242.673 707.555 241.32C704.382 239.967 701.442 238.217 698.735 236.07C696.075 233.923 693.928 231.123 692.295 227.67C690.662 224.217 689.845 219.853 689.845 214.58C689.845 208.467 691.082 203.31 693.555 199.11C696.028 194.91 699.552 191.737 704.125 189.59C708.698 187.397 714.112 186.3 720.365 186.3C725.918 186.3 730.608 186.977 734.435 188.33C738.262 189.683 741.318 191.41 743.605 193.51C745.938 195.563 747.618 197.687 748.645 199.88C749.672 202.073 750.185 203.987 750.185 205.62C750.185 207.627 749.648 209.097 748.575 210.03C747.502 210.917 746.265 211.36 744.865 211.36C743.418 211.36 742.182 210.847 741.155 209.82C740.128 208.747 739.055 207.533 737.935 206.18C736.862 204.827 735.462 203.637 733.735 202.61C732.008 201.537 729.698 201 726.805 201C723.398 201 720.715 201.957 718.755 203.87C716.842 205.783 715.885 208.327 715.885 211.5C715.885 214.3 716.422 216.727 717.495 218.78C718.615 220.833 720.085 222.7 721.905 224.38C723.772 226.013 725.778 227.577 727.925 229.07C730.118 230.517 732.288 232.057 734.435 233.69C736.628 235.323 738.635 237.19 740.455 239.29C742.322 241.343 743.792 243.747 744.865 246.5C745.985 249.253 746.545 252.52 746.545 256.3C746.545 260.173 745.938 263.673 744.725 266.8C743.558 269.927 741.832 272.61 739.545 274.85C737.258 277.09 734.458 278.817 731.145 280.03C727.832 281.197 724.052 281.78 719.805 281.78ZM711.265 235.02C714.718 235.02 716.445 233.573 716.445 230.68C716.445 229.14 716.072 227.973 715.325 227.18C714.578 226.34 713.505 225.92 712.105 225.92C710.378 225.92 709.142 226.317 708.395 227.11C707.695 227.903 707.345 229.047 707.345 230.54C707.345 231.847 707.718 232.92 708.465 233.76C709.212 234.6 710.145 235.02 711.265 235.02ZM703.565 223.68C705.385 223.68 706.738 223.19 707.625 222.21C708.558 221.183 709.025 219.947 709.025 218.5C709.025 216.68 708.582 215.35 707.695 214.51C706.808 213.623 705.432 213.18 703.565 213.18C701.838 213.18 700.555 213.6 699.715 214.44C698.922 215.233 698.525 216.587 698.525 218.5C698.525 220.18 698.992 221.463 699.925 222.35C700.905 223.237 702.118 223.68 703.565 223.68ZM704.125 208.56C705.898 208.56 707.205 208.163 708.045 207.37C708.885 206.53 709.305 205.34 709.305 203.8C709.305 202.167 708.932 201 708.185 200.3C707.438 199.553 706.085 199.18 704.125 199.18C703.005 199.18 702.025 199.553 701.185 200.3C700.345 201 699.925 202.167 699.925 203.8C699.925 205.2 700.298 206.343 701.045 207.23C701.838 208.117 702.865 208.56 704.125 208.56ZM745.145 210.24C744.025 210.24 743.138 209.937 742.485 209.33C741.832 208.677 741.505 207.72 741.505 206.46C741.505 205.247 741.878 204.337 742.625 203.73C743.418 203.123 744.398 202.82 745.565 202.82C746.638 202.82 747.455 203.193 748.015 203.94C748.622 204.64 748.925 205.527 748.925 206.6C748.925 207.72 748.598 208.607 747.945 209.26C747.292 209.913 746.358 210.24 745.145 210.24ZM736.325 271.56L741.225 266.38C745.565 269.553 748.738 272.073 750.745 273.94C752.752 275.76 753.918 277.207 754.245 278.28C754.618 279.307 754.478 280.24 753.825 281.08C753.032 282.107 752.028 282.55 750.815 282.41C749.648 282.223 747.922 281.29 745.635 279.61C743.395 277.883 740.292 275.2 736.325 271.56ZM725.545 277.3L733.665 273.66C736.558 279.82 738.612 284.533 739.825 287.8C741.038 291.113 741.552 293.47 741.365 294.87C741.225 296.27 740.525 297.227 739.265 297.74C737.912 298.3 736.652 298.09 735.485 297.11C734.365 296.177 733.035 294.147 731.495 291.02C730.002 287.893 728.018 283.32 725.545 277.3ZM712.945 278.84L721.065 279.12C721.532 285.7 721.765 290.693 721.765 294.1C721.812 297.507 721.508 299.817 720.855 301.03C720.202 302.29 719.058 302.967 717.425 303.06C716.072 303.107 714.998 302.523 714.205 301.31C713.412 300.143 712.898 297.81 712.665 294.31C712.478 290.857 712.572 285.7 712.945 278.84ZM702.305 276.18C702.538 275.9 702.772 275.62 703.005 275.34C703.285 275.06 703.518 274.827 703.705 274.64C704.498 273.847 705.315 273.473 706.155 273.52C706.995 273.567 707.718 273.847 708.325 274.36C709.118 274.827 709.655 275.527 709.935 276.46C710.262 277.347 710.145 278.14 709.585 278.84C709.445 279.027 709.282 279.26 709.095 279.54C708.908 279.773 708.745 280.007 708.605 280.24C705.618 284.16 703.238 286.89 701.465 288.43C699.692 290.017 698.292 290.857 697.265 290.95C696.285 291.043 695.492 290.833 694.885 290.32C694.325 289.807 693.998 289.083 693.905 288.15C693.858 287.217 694.418 285.817 695.585 283.95C696.798 282.083 699.038 279.493 702.305 276.18ZM699.785 263.16L701.885 269.74C698.012 271.607 694.955 272.983 692.715 273.87C690.522 274.71 688.865 275.06 687.745 274.92C686.672 274.78 685.878 274.127 685.365 272.96C684.805 271.56 684.898 270.37 685.645 269.39C686.438 268.363 687.978 267.383 690.265 266.45C692.598 265.517 695.772 264.42 699.785 263.16ZM756.905 202.12C756.205 198.667 756.462 196.03 757.675 194.21C758.888 192.39 760.918 191.48 763.765 191.48C765.678 191.48 767.195 192.087 768.315 193.3C769.482 194.513 770.298 196.147 770.765 198.2C771.932 202.68 772.982 207.393 773.915 212.34C774.895 217.24 775.852 222.14 776.785 227.04C777.765 231.94 778.838 236.56 780.005 240.9C780.705 243.327 781.732 244.54 783.085 244.54C783.598 244.54 784.135 244.423 784.695 244.19C785.302 243.957 785.838 243.56 786.305 243C790.085 238.567 793.795 233.923 797.435 229.07C801.122 224.17 804.925 219.527 808.845 215.14C810.525 213.227 812.158 211.757 813.745 210.73C815.332 209.657 817.245 209.12 819.485 209.12C821.725 209.12 823.498 209.727 824.805 210.94C826.158 212.107 827.185 213.927 827.885 216.4C828.118 217.147 828.352 217.94 828.585 218.78C828.818 219.573 829.028 220.343 829.215 221.09C829.402 221.883 829.565 222.583 829.705 223.19C829.892 223.797 830.055 224.403 830.195 225.01C830.428 225.757 830.615 226.503 830.755 227.25C830.942 227.95 831.128 228.65 831.315 229.35C831.502 230.003 831.665 230.633 831.805 231.24C831.992 231.847 832.155 232.453 832.295 233.06C832.435 233.48 832.552 233.9 832.645 234.32C832.738 234.693 832.832 235.09 832.925 235.51C833.065 235.883 833.182 236.28 833.275 236.7C833.462 237.353 833.625 238.007 833.765 238.66C833.952 239.313 834.138 239.967 834.325 240.62C835.165 243.793 835.982 246.85 836.775 249.79C837.615 252.73 838.338 255.227 838.945 257.28C839.645 259.333 840.812 260.36 842.445 260.36C843.238 260.36 843.962 260.08 844.615 259.52C845.268 258.96 845.618 258.12 845.665 257C846.178 251.027 846.622 245.03 846.995 239.01C847.368 232.943 847.742 226.877 848.115 220.81C848.488 214.743 848.932 208.7 849.445 202.68C849.818 198.06 850.845 194.583 852.525 192.25C854.205 189.87 856.958 188.68 860.785 188.68C865.825 188.68 869.162 190.197 870.795 193.23C872.428 196.263 872.638 200.44 871.425 205.76C869.138 215.84 866.665 225.757 864.005 235.51C861.392 245.217 858.638 254.667 855.745 263.86C854.718 267.08 853.178 269.53 851.125 271.21C849.118 272.843 846.458 273.66 843.145 273.66C839.785 273.66 837.125 272.867 835.165 271.28C833.205 269.647 831.478 267.08 829.985 263.58C828.305 259.287 826.765 254.9 825.365 250.42C824.012 245.94 822.518 241.507 820.885 237.12C820.185 235.16 819.065 234.18 817.525 234.18C816.965 234.18 816.405 234.39 815.845 234.81C815.332 235.23 814.818 235.907 814.305 236.84C813.138 239.127 811.972 241.46 810.805 243.84C809.685 246.22 808.565 248.6 807.445 250.98C806.045 250.233 804.598 249.58 803.105 249.02C801.612 248.413 800.235 248.087 798.975 248.04C797.715 247.947 796.712 248.273 795.965 249.02C794.845 250.187 794.588 251.353 795.195 252.52C795.848 253.64 796.992 254.713 798.625 255.74C800.305 256.72 802.078 257.653 803.945 258.54C803.478 259.707 802.988 260.827 802.475 261.9C801.962 262.973 801.378 264.047 800.725 265.12C798.438 263.813 796.222 262.623 794.075 261.55C791.975 260.477 790.108 259.777 788.475 259.45C786.842 259.123 785.558 259.427 784.625 260.36C783.225 261.807 783.062 263.23 784.135 264.63C785.208 266.03 786.982 267.383 789.455 268.69C791.928 269.95 794.518 271.187 797.225 272.4C797.085 272.68 796.922 272.983 796.735 273.31C796.548 273.637 796.385 273.94 796.245 274.22C794.098 278.187 792.115 281.173 790.295 283.18C788.475 285.14 786.398 286.12 784.065 286.12C781.638 286.12 779.562 285.327 777.835 283.74C776.155 282.153 774.918 279.867 774.125 276.88C770.905 264.327 767.848 251.82 764.955 239.36C762.108 226.9 759.425 214.487 756.905 202.12ZM769.645 211.36C771.045 211.36 771.955 211.943 772.375 213.11C772.795 214.277 773.005 215.677 773.005 217.31C773.005 218.43 772.795 219.247 772.375 219.76C772.002 220.227 771.418 220.6 770.625 220.88C770.298 221.02 769.785 221.16 769.085 221.3C768.432 221.393 767.918 221.44 767.545 221.44C766.285 221.44 765.422 220.763 764.955 219.41C764.535 218.057 764.325 216.633 764.325 215.14C764.325 214.067 764.535 213.297 764.955 212.83C765.375 212.317 765.958 211.967 766.705 211.78C767.218 211.64 767.708 211.547 768.175 211.5C768.688 211.407 769.178 211.36 769.645 211.36ZM775.665 234.74L776.645 242.86C775.245 243.187 774.102 243.303 773.215 243.21C772.375 243.117 771.745 242.72 771.325 242.02C770.952 241.32 770.765 240.247 770.765 238.8C770.765 236.887 771.162 235.697 771.955 235.23C772.748 234.763 773.985 234.6 775.665 234.74ZM791.625 214.02C788.685 214.02 786.422 213.32 784.835 211.92C783.295 210.52 782.525 208.56 782.525 206.04C782.525 202.82 783.342 200.417 784.975 198.83C786.655 197.197 788.638 196.38 790.925 196.38C794.098 196.38 796.432 197.15 797.925 198.69C799.418 200.23 800.165 202.027 800.165 204.08C800.165 207.3 799.348 209.773 797.715 211.5C796.128 213.18 794.098 214.02 791.625 214.02ZM856.025 208.7C857.098 208.887 857.938 209.307 858.545 209.96C859.152 210.613 859.455 211.71 859.455 213.25C859.455 215.35 859.105 216.75 858.405 217.45C857.705 218.15 856.445 218.547 854.625 218.64C853.365 218.687 852.082 218.687 850.775 218.64C849.468 218.593 848.185 218.5 846.925 218.36C842.072 217.847 838.852 217.147 837.265 216.26C835.725 215.327 834.955 214.09 834.955 212.55C834.955 209.797 836.075 208.28 838.315 208C840.602 207.673 843.798 207.627 847.905 207.86C849.258 207.907 850.612 208 851.965 208.14C853.365 208.28 854.718 208.467 856.025 208.7ZM863.585 215.56C864.518 215.747 865.218 216.167 865.685 216.82C866.152 217.427 866.385 218.267 866.385 219.34C866.385 221.44 865.918 222.91 864.985 223.75C864.052 224.543 862.698 224.847 860.925 224.66C860.178 224.567 859.385 224.45 858.545 224.31C857.752 224.17 856.958 224.007 856.165 223.82C854.952 223.493 854.042 223.073 853.435 222.56C852.875 222 852.595 221.137 852.595 219.97C852.595 218.197 853.015 216.867 853.855 215.98C854.695 215.047 855.978 214.627 857.705 214.72C858.685 214.767 859.665 214.86 860.645 215C861.625 215.14 862.605 215.327 863.585 215.56ZM879.233 271.98C879.933 268.2 880.703 264.117 881.543 259.73C882.383 255.343 883.247 250.84 884.133 246.22C885.067 241.553 885.977 236.98 886.863 232.5C887.003 231.893 887.12 231.31 887.213 230.75C887.307 230.19 887.423 229.63 887.563 229.07C887.703 228.51 887.797 227.95 887.843 227.39C888.03 226.597 888.193 225.803 888.333 225.01C888.473 224.17 888.613 223.353 888.753 222.56C889.08 221.067 889.383 219.62 889.663 218.22C889.943 216.82 890.2 215.467 890.433 214.16C893.513 214.767 896.267 215.233 898.693 215.56C901.12 215.84 903.033 215.723 904.433 215.21C905.833 214.65 906.533 213.413 906.533 211.5C906.533 209.727 905.46 208.42 903.313 207.58C901.213 206.74 897.527 206.04 892.253 205.48C892.533 204.08 892.813 202.703 893.093 201.35C893.373 199.997 893.677 198.62 894.003 197.22C894.89 192.6 897.107 189.357 900.653 187.49C904.247 185.577 908.867 184.62 914.513 184.62C920.347 184.62 925.13 185.81 928.863 188.19C932.597 190.523 934.813 194.14 935.513 199.04C935.607 199.32 935.653 199.577 935.653 199.81C935.7 200.043 935.747 200.3 935.793 200.58C929.493 201.28 925.037 202.05 922.423 202.89C919.857 203.73 918.573 205.107 918.573 207.02C918.573 209.073 919.437 210.357 921.163 210.87C922.89 211.337 925.153 211.383 927.953 211.01C930.8 210.637 933.88 210.193 937.193 209.68C937.38 211.127 937.637 213.04 937.963 215.42C938.337 217.8 938.733 220.507 939.153 223.54C939.247 224.193 939.34 224.893 939.433 225.64C939.573 226.34 939.69 227.04 939.783 227.74C939.877 228.3 939.947 228.86 939.993 229.42C940.087 229.98 940.18 230.54 940.273 231.1C940.367 231.66 940.437 232.243 940.483 232.85C941.137 237.33 941.79 241.973 942.443 246.78C943.097 251.54 943.727 256.137 944.333 260.57C944.94 265.003 945.453 268.97 945.873 272.47C946.34 275.923 946.713 278.607 946.993 280.52C947.413 283.927 947.04 286.353 945.873 287.8C944.707 289.293 943.353 290.04 941.813 290.04C940.507 290.04 939.247 289.48 938.033 288.36C936.867 287.24 936.027 285.28 935.513 282.48C934.253 275.527 932.993 268.247 931.733 260.64C930.52 252.987 929.213 245.147 927.813 237.12C926.927 232.08 925.457 228.393 923.403 226.06C921.35 223.727 917.967 222.56 913.253 222.56C908.307 222.56 904.597 223.773 902.123 226.2C899.65 228.58 898.133 232.08 897.573 236.7C896.827 242.907 896.127 249.09 895.473 255.25C894.867 261.41 894.167 267.64 893.373 273.94C893.047 276.927 892.137 279.003 890.643 280.17C889.197 281.337 887.633 281.92 885.953 281.92C883.947 281.92 882.15 281.15 880.563 279.61C879.023 278.07 878.58 275.527 879.233 271.98ZM891.273 259.52L893.933 249.72C900.373 249.813 906.79 249.93 913.183 250.07C919.577 250.21 925.993 250.327 932.433 250.42C934.393 250.467 935.887 250.91 936.913 251.75C937.94 252.59 938.453 253.827 938.453 255.46C938.453 257.467 937.94 258.843 936.913 259.59C935.887 260.337 934.347 260.687 932.293 260.64C925.387 260.453 918.527 260.29 911.713 260.15C904.9 259.963 898.087 259.753 891.273 259.52ZM917.733 277.44C914.653 277.3 912.553 276.81 911.433 275.97C910.313 275.13 909.753 273.94 909.753 272.4C909.753 270.86 910.43 269.67 911.783 268.83C913.183 267.99 915.307 267.547 918.153 267.5C921.233 267.407 924.313 267.36 927.393 267.36C930.52 267.36 933.693 267.407 936.913 267.5L939.153 277.72C935.467 277.72 931.827 277.697 928.233 277.65C924.687 277.603 921.187 277.533 917.733 277.44ZM892.533 238.94C887.12 238.24 883.013 237.61 880.213 237.05C877.46 236.49 875.593 235.837 874.613 235.09C873.68 234.343 873.213 233.363 873.213 232.15C873.213 230.097 874.1 228.79 875.873 228.23C877.693 227.67 880.097 227.53 883.083 227.81C886.07 228.043 889.313 228.417 892.813 228.93L892.533 238.94ZM885.603 268.2C880.843 268.013 877.25 267.733 874.823 267.36C872.397 266.987 870.787 266.45 869.993 265.75C869.153 265.003 868.733 264.047 868.733 262.88C868.733 261.2 869.317 260.01 870.483 259.31C871.603 258.61 873.587 258.237 876.433 258.19C879.28 258.097 883.223 258.167 888.263 258.4L885.603 268.2ZM932.713 243.7L930.053 234.46C931.967 234.04 933.553 233.9 934.813 234.04C936.12 234.18 937.1 234.74 937.753 235.72C938.407 236.653 938.733 238.147 938.733 240.2C938.733 241.6 938.197 242.533 937.123 243C936.097 243.467 934.627 243.7 932.713 243.7ZM933.133 260.64L933.273 250.56C935.607 250.607 937.403 250.747 938.663 250.98C939.97 251.167 940.857 251.657 941.323 252.45C941.837 253.197 942.093 254.433 942.093 256.16C942.093 258.26 941.417 259.543 940.063 260.01C938.757 260.477 936.447 260.687 933.133 260.64ZM990.453 288.08C983.92 288.08 978.087 286.47 972.953 283.25C967.82 280.03 963.783 275.293 960.843 269.04C957.903 262.74 956.433 254.993 956.433 245.8C956.433 236.887 957.25 229.117 958.883 222.49C960.563 215.863 962.873 210.263 965.813 205.69C968.8 201.117 972.23 197.43 976.103 194.63C979.977 191.783 984.153 189.73 988.633 188.47C993.113 187.21 997.687 186.58 1002.35 186.58C1009.96 186.58 1015.26 187.397 1018.24 189.03C1021.28 190.663 1022.79 192.787 1022.79 195.4C1022.79 196.847 1022.42 197.92 1021.67 198.62C1020.97 199.32 1020.04 199.787 1018.87 200.02C1017.75 200.207 1016.54 200.277 1015.23 200.23C1013.97 200.183 1012.78 200.16 1011.66 200.16C1007.04 200.16 1002.87 201.56 999.133 204.36C995.4 207.16 992.227 210.917 989.613 215.63C987 220.343 984.993 225.617 983.593 231.45C982.193 237.237 981.493 243.14 981.493 249.16C981.493 255.787 982.147 261.083 983.453 265.05C984.76 268.97 986.603 271.817 988.983 273.59C991.41 275.317 994.28 276.18 997.593 276.18C1000.81 276.18 1004.03 275.153 1007.25 273.1C1010.47 271 1013.13 267.943 1015.23 263.93C1017.38 259.87 1018.45 254.9 1018.45 249.02C1018.45 247.387 1018.34 246.08 1018.1 245.1C1017.87 244.12 1017.45 243.397 1016.84 242.93C1016.24 242.463 1015.37 242.207 1014.25 242.16C1012.81 242.067 1011.41 242.067 1010.05 242.16C1008.75 242.253 1007.21 242.3 1005.43 242.3C1003.47 242.3 1001.7 241.95 1000.11 241.25C998.527 240.55 997.733 238.987 997.733 236.56C997.733 234.18 998.55 232.523 1000.18 231.59C1001.82 230.61 1003.99 230.167 1006.69 230.26C1009.35 230.4 1012.06 230.563 1014.81 230.75C1017.61 230.937 1020.23 231.147 1022.65 231.38C1025.27 231.66 1027.02 232.313 1027.9 233.34C1028.84 234.367 1029.33 235.907 1029.37 237.96C1029.47 239.5 1029.54 241.367 1029.58 243.56C1029.63 245.707 1029.68 248.017 1029.72 250.49C1029.72 251.05 1029.72 251.61 1029.72 252.17C1029.77 252.73 1029.79 253.313 1029.79 253.92C1029.79 254.34 1029.79 254.783 1029.79 255.25C1029.79 255.67 1029.79 256.09 1029.79 256.51C1029.84 256.93 1029.86 257.373 1029.86 257.84C1029.86 258.727 1029.86 259.613 1029.86 260.5C1029.91 261.34 1029.93 262.227 1029.93 263.16C1029.98 263.813 1030 264.49 1030 265.19C1030 265.843 1029.98 266.497 1029.93 267.15C1029.98 267.757 1030 268.34 1030 268.9C1030.05 269.413 1030.07 269.997 1030.07 270.65C1030.12 274.103 1030.14 277.323 1030.14 280.31C1030.19 283.25 1030.21 285.653 1030.21 287.52C1030.21 289.947 1029.65 291.72 1028.53 292.84C1027.46 293.96 1026.25 294.52 1024.89 294.52C1023.68 294.52 1022.51 294.1 1021.39 293.26C1020.27 292.467 1019.48 291.3 1019.01 289.76C1018.69 288.64 1018.41 287.567 1018.17 286.54C1017.99 285.56 1017.75 284.627 1017.47 283.74C1017.15 282.527 1016.8 281.71 1016.42 281.29C1016.1 280.87 1015.61 280.66 1014.95 280.66C1014.16 280.66 1013.18 281.033 1012.01 281.78C1010.85 282.527 1009.35 283.39 1007.53 284.37C1005.71 285.35 1003.4 286.213 1000.6 286.96C997.85 287.707 994.467 288.08 990.453 288.08ZM977.853 219.06C979.627 219.06 981.05 218.5 982.123 217.38C983.197 216.26 983.733 214.767 983.733 212.9C983.733 211.22 983.173 209.867 982.053 208.84C980.98 207.813 979.253 207.3 976.873 207.3C975.427 207.3 974.19 207.837 973.163 208.91C972.183 209.937 971.693 211.36 971.693 213.18C971.693 215 972.207 216.447 973.233 217.52C974.307 218.547 975.847 219.06 977.853 219.06ZM971.553 236.84C972.907 236.84 974.073 236.257 975.053 235.09C976.08 233.923 976.593 232.547 976.593 230.96C976.593 228.907 976.057 227.25 974.983 225.99C973.957 224.73 972.393 224.1 970.293 224.1C968.473 224.1 967.003 224.707 965.883 225.92C964.81 227.087 964.273 228.767 964.273 230.96C964.273 232.64 964.833 234.04 965.953 235.16C967.12 236.28 968.987 236.84 971.553 236.84ZM968.753 255.32C970.573 255.32 972.02 254.807 973.093 253.78C974.213 252.753 974.773 251.027 974.773 248.6C974.773 247.107 974.307 245.893 973.373 244.96C972.44 244.027 970.947 243.56 968.893 243.56C966.887 243.56 965.393 244.027 964.413 244.96C963.48 245.893 963.013 247.2 963.013 248.88C963.013 251.12 963.527 252.753 964.553 253.78C965.627 254.807 967.027 255.32 968.753 255.32ZM1021.81 256.86C1019.67 257.42 1017.5 257.933 1015.3 258.4C1013.16 258.82 1010.85 259.287 1008.37 259.8C1005.76 260.267 1003.64 260.103 1002 259.31C1000.42 258.47 999.623 257 999.623 254.9C999.623 253.733 1000.07 252.683 1000.95 251.75C1001.89 250.77 1003.61 250.093 1006.13 249.72C1008.51 249.347 1010.87 249.043 1013.2 248.81C1015.54 248.577 1017.89 248.367 1020.27 248.18C1022.33 247.947 1023.89 248.18 1024.96 248.88C1026.08 249.58 1026.64 250.747 1026.64 252.38C1026.64 253.547 1026.22 254.503 1025.38 255.25C1024.59 255.95 1023.4 256.487 1021.81 256.86ZM988.913 193.44C989.147 193.86 989.38 194.28 989.613 194.7C989.893 195.12 990.127 195.54 990.313 195.96C990.967 197.22 990.943 198.34 990.243 199.32C989.543 200.3 988.587 201.047 987.373 201.56C985.693 202.307 984.293 202.423 983.173 201.91C982.053 201.397 981.307 200.627 980.933 199.6C980.793 199.227 980.653 198.877 980.513 198.55C980.373 198.177 980.233 197.827 980.093 197.5C979.767 196.66 979.743 195.587 980.023 194.28C980.303 192.927 981.307 191.947 983.033 191.34C984.667 190.687 985.973 190.71 986.953 191.41C987.933 192.063 988.587 192.74 988.913 193.44ZM976.733 202.12L970.573 209.54C969.547 208.933 968.777 208.28 968.263 207.58C967.797 206.88 967.61 206.133 967.703 205.34C967.843 204.5 968.333 203.567 969.173 202.54C970.293 201.187 971.483 200.44 972.743 200.3C974.003 200.113 975.333 200.72 976.733 202.12Z" fill="white"/>
<path d="M692 388.3L701.5 389.3V394.2C701.5 394.533 701.667 394.7 702 394.7H706C706.333 394.7 706.5 394.533 706.5 394.2V384.9L697.6 381.1C696.533 380.633 695.333 379.9 694 378.9C692.667 377.9 692 376.267 692 374V362.9C692 360.1 692.867 357.867 694.6 356.2C696.333 354.467 698.6 353.6 701.4 353.6H706.6C709.4 353.6 711.667 354.467 713.4 356.2C715.133 357.867 716 360.1 716 362.9V369.3L706.5 368.3V363.4C706.5 363.067 706.333 362.9 706 362.9H702C701.667 362.9 701.5 363.067 701.5 363.4V372.7L710.4 376.5C711.467 376.967 712.667 377.7 714 378.7C715.333 379.7 716 381.333 716 383.6V394.7C716 397.5 715.133 399.767 713.4 401.5C711.667 403.167 709.4 404 706.6 404H701.4C698.6 404 696.333 403.167 694.6 401.5C692.867 399.767 692 397.5 692 394.7V388.3ZM736.727 394.7V354H746.227V394.7H747.727L748.727 404H736.727V400.1L734.227 404H731.527C728.461 404 725.994 403.133 724.127 401.4C722.327 399.6 721.427 397.367 721.427 394.7V363.3H719.027L720.027 354H730.927V394.2C730.927 394.533 731.094 394.7 731.427 394.7H736.727ZM776.403 404H766.903V363.8C766.903 363.467 766.736 363.3 766.403 363.3H761.103V404H751.603V363.3H749.203L750.203 354H761.103V357.9L763.603 354H766.303C768.503 354 770.403 354.467 772.003 355.4C773.603 356.333 774.77 357.6 775.503 359.2L778.903 354H781.603C784.67 354 787.103 354.867 788.903 356.6C790.77 358.333 791.703 360.567 791.703 363.3V394.7H794.103L793.103 404H782.203V363.8C782.203 363.467 782.036 363.3 781.703 363.3H776.403V404ZM822.79 404H813.29V363.8C813.29 363.467 813.123 363.3 812.79 363.3H807.49V404H797.99V363.3H795.59L796.59 354H807.49V357.9L809.99 354H812.69C814.89 354 816.79 354.467 818.39 355.4C819.99 356.333 821.157 357.6 821.89 359.2L825.29 354H827.99C831.057 354 833.49 354.867 835.29 356.6C837.157 358.333 838.09 360.567 838.09 363.3V394.7H840.49L839.49 404H828.59V363.8C828.59 363.467 828.423 363.3 828.09 363.3H822.79V404ZM843.465 395.1V362.9C843.465 360.1 844.332 357.867 846.065 356.2C847.798 354.467 850.065 353.6 852.865 353.6H859.065C861.865 353.6 864.132 354.467 865.865 356.2C867.598 357.867 868.465 360.1 868.465 362.9V375.2H858.965V363.4C858.965 363.067 858.798 362.9 858.465 362.9H853.465C853.132 362.9 852.965 363.067 852.965 363.4V375.2H868.465V384.5H852.965V394.6C852.965 394.933 853.132 395.1 853.465 395.1H858.465C858.798 395.1 858.965 394.967 858.965 394.7V389.2H868.465V395.1C868.465 397.9 867.598 400.167 865.865 401.9C864.132 403.567 861.865 404.4 859.065 404.4H852.865C850.065 404.4 847.798 403.567 846.065 401.9C844.332 400.167 843.465 397.9 843.465 395.1ZM883.857 354V358.4L886.557 354H893.257V363.7H883.857V404H874.357V363.3H871.957L872.957 354H883.857ZM936.966 404H914.266V378.1C914.266 375.3 915.099 373.067 916.766 371.4C918.499 369.667 920.666 368.8 923.266 368.8H926.966C927.299 368.8 927.466 368.633 927.466 368.3V353.8C927.466 353.467 927.299 353.3 926.966 353.3H914.266V344H927.566C930.366 344 932.632 344.867 934.366 346.6C936.099 348.267 936.966 350.5 936.966 353.3V368.8C936.966 371.6 936.099 373.867 934.366 375.6C932.632 377.267 930.366 378.1 927.566 378.1H924.266C923.932 378.1 923.766 378.267 923.766 378.6V394.7H936.966V404ZM955.626 343.6C958.359 343.6 960.592 344.467 962.326 346.2C964.126 347.933 965.026 350.167 965.026 352.9V394.7C965.026 397.367 964.126 399.6 962.326 401.4C960.592 403.133 958.359 404 955.626 404H950.326C947.592 404 945.326 403.133 943.526 401.4C941.792 399.6 940.926 397.367 940.926 394.7V352.9C940.926 350.167 941.792 347.933 943.526 346.2C945.259 344.4 947.526 343.533 950.326 343.6H955.626ZM950.226 394.2C950.226 394.533 950.392 394.7 950.726 394.7H955.426C955.759 394.7 955.926 394.533 955.926 394.2V353.4C955.926 353.067 955.759 352.9 955.426 352.9H950.926C950.592 352.9 950.426 353.067 950.426 353.4L950.226 394.2ZM991.751 404H969.051V378.1C969.051 375.3 969.884 373.067 971.551 371.4C973.284 369.667 975.451 368.8 978.051 368.8H981.751C982.084 368.8 982.251 368.633 982.251 368.3V353.8C982.251 353.467 982.084 353.3 981.751 353.3H969.051V344H982.351C985.151 344 987.417 344.867 989.151 346.6C990.884 348.267 991.751 350.5 991.751 353.3V368.8C991.751 371.6 990.884 373.867 989.151 375.6C987.417 377.267 985.151 378.1 982.351 378.1H979.051C978.717 378.1 978.551 378.267 978.551 378.6V394.7H991.751V404ZM1011.41 403.9H1005.11C1002.31 403.9 1000.04 403.067 998.311 401.4C996.578 399.667 995.711 397.4 995.711 394.6V387.1V373.9C995.711 373.5 995.744 373.133 995.811 372.8V353.3C995.811 350.5 996.678 348.267 998.411 346.6C1000.14 344.867 1002.41 344 1005.21 344H1010.91C1013.78 344 1016.04 344.867 1017.71 346.6C1019.44 348.267 1020.31 350.5 1020.31 353.3V362.8L1010.81 361.8V353.8C1010.81 353.467 1010.64 353.3 1010.31 353.3H1005.81C1005.48 353.3 1005.31 353.467 1005.31 353.8V364.6H1010.91C1013.78 364.6 1016.04 365.467 1017.71 367.2C1019.44 368.867 1020.31 371.1 1020.31 373.9V394.6C1020.31 397.4 1019.48 399.667 1017.81 401.4C1016.14 403.067 1014.01 403.9 1011.41 403.9ZM1010.81 374.4C1010.81 374.067 1010.64 373.9 1010.31 373.9H1005.71C1005.44 373.9 1005.28 373.967 1005.21 374.1V394.1C1005.21 394.433 1005.38 394.6 1005.71 394.6H1010.31C1010.64 394.6 1010.81 394.433 1010.81 394.1V374.4Z" fill="#DDA15E"/>
<path d="M132.789 215L12 132.094M132.789 215L158.194 103.324M132.789 215L206 90.5049M132.789 215L65.8611 120.742M12 132.094L26.5238 76.0033M12 132.094L65.8611 120.742M158.194 103.324L65.8611 120.742M158.194 103.324L99.4616 47M158.194 103.324L170.76 47M158.194 103.324L206 90.5049M26.5238 76.0033L65.8611 120.742M26.5238 76.0033L99.4616 47M65.8611 120.742L99.4616 47M99.4616 47H170.76M170.76 47L206 90.5049" stroke="#DDA15E" stroke-width="20"/>
</svg>
